<!-- source-sha256:f5ff4dd7dd654f46000afc370f37bad39bf95357cafdc2da4955b010feb92821 -->
<!-- render-sha256:93797fd65537e7a43902c73a15a7be635f9da9a7a959a904f62a65bb98ecc245 -->
<svg id="open-webui-architecture-dark" width="100%" xmlns="http://www.w3.org/2000/svg" xmlns:xlink="http://www.w3.org/1999/xlink" class="flowchart" style="max-width: 1415.9px; background-color: transparent;" viewBox="0 0 1415.8984375 1804" role="graphics-document document" aria-roledescription="flowchart-v2"><style>#open-webui-architecture-dark{font-size:18px;fill:#ccc;}@keyframes edge-animation-frame{from{stroke-dashoffset:0;}}@keyframes dash{to{stroke-dashoffset:0;}}#open-webui-architecture-dark .edge-animation-slow{stroke-dasharray:9,5!important;stroke-dashoffset:900;animation:dash 50s linear infinite;stroke-linecap:round;}#open-webui-architecture-dark .edge-animation-fast{stroke-dasharray:9,5!important;stroke-dashoffset:900;animation:dash 20s linear infinite;stroke-linecap:round;}#open-webui-architecture-dark .error-icon{fill:#a44141;}#open-webui-architecture-dark .error-text{fill:#ddd;stroke:#ddd;}#open-webui-architecture-dark .edge-thickness-normal{stroke-width:1px;}#open-webui-architecture-dark .edge-thickness-thick{stroke-width:3.5px;}#open-webui-architecture-dark .edge-pattern-solid{stroke-dasharray:0;}#open-webui-architecture-dark .edge-thickness-invisible{stroke-width:0;fill:none;}#open-webui-architecture-dark .edge-pattern-dashed{stroke-dasharray:3;}#open-webui-architecture-dark .edge-pattern-dotted{stroke-dasharray:2;}#open-webui-architecture-dark .marker{fill:lightgrey;stroke:lightgrey;}#open-webui-architecture-dark .marker.cross{stroke:lightgrey;}#open-webui-architecture-dark svg{font-size:18px;}#open-webui-architecture-dark p{margin:0;}#open-webui-architecture-dark .label{color:#ccc;}#open-webui-architecture-dark .cluster-label text{fill:#F9FFFE;}#open-webui-architecture-dark .cluster-label span{color:#F9FFFE;}#open-webui-architecture-dark .cluster-label span p{background-color:transparent;}#open-webui-architecture-dark .label text,#open-webui-architecture-dark span{fill:#ccc;color:#ccc;}#open-webui-architecture-dark .node rect,#open-webui-architecture-dark .node circle,#open-webui-architecture-dark .node ellipse,#open-webui-architecture-dark .node polygon,#open-webui-architecture-dark .node path{fill:#1f2020;stroke:#ccc;stroke-width:1px;}#open-webui-architecture-dark .rough-node .label text,#open-webui-architecture-dark .node .label text,#open-webui-architecture-dark .image-shape .label,#open-webui-architecture-dark .icon-shape .label{text-anchor:middle;}#open-webui-architecture-dark .node .katex path{fill:#000;stroke:#000;stroke-width:1px;}#open-webui-architecture-dark .rough-node .label,#open-webui-architecture-dark .node .label,#open-webui-architecture-dark .image-shape .label,#open-webui-architecture-dark .icon-shape .label{text-align:center;}#open-webui-architecture-dark .node.clickable{cursor:pointer;}#open-webui-architecture-dark .root .anchor path{fill:lightgrey!important;stroke-width:0;stroke:lightgrey;}#open-webui-architecture-dark .arrowheadPath{fill:lightgrey;}#open-webui-architecture-dark .edgePaths .path{stroke:lightgrey;stroke-width:1px;}#open-webui-architecture-dark .flowchart-link{stroke:lightgrey;fill:none;}#open-webui-architecture-dark .edgeLabel{background-color:hsl(0, 0%, 34.4117647059%);text-align:center;}#open-webui-architecture-dark .edgeLabel p{background-color:hsl(0, 0%, 34.4117647059%);}#open-webui-architecture-dark .edgeLabel rect{opacity:0.5;background-color:hsl(0, 0%, 34.4117647059%);fill:hsl(0, 0%, 34.4117647059%);}#open-webui-architecture-dark .labelBkg{background-color:rgba(87.75, 87.75, 87.75, 0.5);}#open-webui-architecture-dark .cluster rect{fill:hsl(180, 1.5873015873%, 28.3529411765%);stroke:rgba(255, 255, 255, 0.25);stroke-width:1px;}#open-webui-architecture-dark .cluster text{fill:#F9FFFE;}#open-webui-architecture-dark .cluster span{color:#F9FFFE;}#open-webui-architecture-dark .node .collapsed-indicator{fill:rgba(255, 255, 255, 0.25);stroke:none;opacity:0.6;}#open-webui-architecture-dark .node .collapsed-separator{stroke:rgba(255, 255, 255, 0.25);stroke-width:0.75px;}#open-webui-architecture-dark div.mermaidTooltip{position:absolute;text-align:center;max-width:200px;padding:2px;font-size:12px;background:hsl(20, 1.5873015873%, 12.3529411765%);border:1px solid rgba(255, 255, 255, 0.25);border-radius:2px;pointer-events:none;z-index:100;}#open-webui-architecture-dark .flowchartTitleText{text-anchor:middle;font-size:18px;fill:#ccc;}#open-webui-architecture-dark rect.text{fill:none;stroke-width:0;}#open-webui-architecture-dark .icon-shape,#open-webui-architecture-dark .image-shape{background-color:hsl(0, 0%, 34.4117647059%);text-align:center;}#open-webui-architecture-dark .icon-shape p,#open-webui-architecture-dark .image-shape p{background-color:hsl(0, 0%, 34.4117647059%);padding:2px;}#open-webui-architecture-dark .icon-shape .label rect,#open-webui-architecture-dark .image-shape .label rect{opacity:0.5;background-color:hsl(0, 0%, 34.4117647059%);fill:hsl(0, 0%, 34.4117647059%);}#open-webui-architecture-dark .label-icon{display:inline-block;height:1em;overflow:visible;vertical-align:-0.125em;}#open-webui-architecture-dark .node .label-icon path{fill:currentColor;stroke:revert;stroke-width:revert;}#open-webui-architecture-dark .node .neo-node{stroke:#ccc;}#open-webui-architecture-dark [data-look="neo"].node rect,#open-webui-architecture-dark [data-look="neo"].cluster rect,#open-webui-architecture-dark [data-look="neo"].node polygon{stroke:url(#open-webui-architecture-dark-gradient);filter:drop-shadow( 1px 2px 2px rgba(185,185,185,1));}#open-webui-architecture-dark [data-look="neo"].swimlane.cluster rect{filter:none;}#open-webui-architecture-dark [data-look="neo"].node path{stroke:url(#open-webui-architecture-dark-gradient);stroke-width:1px;}#open-webui-architecture-dark [data-look="neo"].node .outer-path{filter:drop-shadow( 1px 2px 2px rgba(185,185,185,1));}#open-webui-architecture-dark [data-look="neo"].node .neo-line path{stroke:#ccc;filter:none;}#open-webui-architecture-dark [data-look="neo"].node circle{stroke:url(#open-webui-architecture-dark-gradient);filter:drop-shadow( 1px 2px 2px rgba(185,185,185,1));}#open-webui-architecture-dark [data-look="neo"].node circle .state-start{fill:#000000;}#open-webui-architecture-dark [data-look="neo"].icon-shape .icon{fill:url(#open-webui-architecture-dark-gradient);filter:drop-shadow( 1px 2px 2px rgba(185,185,185,1));}#open-webui-architecture-dark [data-look="neo"].icon-shape .icon-neo path{stroke:url(#open-webui-architecture-dark-gradient);filter:drop-shadow( 1px 2px 2px rgba(185,185,185,1));}#open-webui-architecture-dark :root{--mermaid-font-family:"trebuchet ms",verdana,arial,sans-serif;}</style><g><marker id="open-webui-architecture-dark_flowchart-v2-pointEnd" class="marker flowchart-v2" viewBox="0 0 10 10" refX="5" refY="5" markerUnits="userSpaceOnUse" markerWidth="8" markerHeight="8" orient="auto"><path d="M 0 0 L 10 5 L 0 10 z" class="arrowMarkerPath" style="stroke-width: 1; stroke-dasharray: 1, 0;"/></marker><marker id="open-webui-architecture-dark_flowchart-v2-pointStart" class="marker flowchart-v2" viewBox="0 0 10 10" refX="4.5" refY="5" markerUnits="userSpaceOnUse" markerWidth="8" markerHeight="8" orient="auto"><path d="M 0 5 L 10 10 L 10 0 z" class="arrowMarkerPath" style="stroke-width: 1; stroke-dasharray: 1, 0;"/></marker><marker id="open-webui-architecture-dark_flowchart-v2-pointEnd-margin" class="marker flowchart-v2" viewBox="0 0 11.5 14" refX="11.5" refY="7" markerUnits="userSpaceOnUse" markerWidth="10.5" markerHeight="14" orient="auto"><path d="M 0 0 L 11.5 7 L 0 14 z" class="arrowMarkerPath" style="stroke-width: 0; stroke-dasharray: 1, 0;"/></marker><marker id="open-webui-architecture-dark_flowchart-v2-pointStart-margin" class="marker flowchart-v2" viewBox="0 0 11.5 14" refX="1" refY="7" markerUnits="userSpaceOnUse" markerWidth="11.5" markerHeight="14" orient="auto"><polygon points="0,7 11.5,14 11.5,0" class="arrowMarkerPath" style="stroke-width: 0; stroke-dasharray: 1, 0;"/></marker><marker id="open-webui-architecture-dark_flowchart-v2-circleEnd" class="marker flowchart-v2" viewBox="0 0 10 10" refX="11" refY="5" markerUnits="userSpaceOnUse" markerWidth="11" markerHeight="11" orient="auto"><circle cx="5" cy="5" r="5" class="arrowMarkerPath" style="stroke-width: 1; stroke-dasharray: 1, 0;"/></marker><marker id="open-webui-architecture-dark_flowchart-v2-circleStart" class="marker flowchart-v2" viewBox="0 0 10 10" refX="-1" refY="5" markerUnits="userSpaceOnUse" markerWidth="11" markerHeight="11" orient="auto"><circle cx="5" cy="5" r="5" class="arrowMarkerPath" style="stroke-width: 1; stroke-dasharray: 1, 0;"/></marker><marker id="open-webui-architecture-dark_flowchart-v2-circleEnd-margin" class="marker flowchart-v2" viewBox="0 0 10 10" refY="5" refX="12.25" markerUnits="userSpaceOnUse" markerWidth="14" markerHeight="14" orient="auto"><circle cx="5" cy="5" r="5" class="arrowMarkerPath" style="stroke-width: 0; stroke-dasharray: 1, 0;"/></marker><marker id="open-webui-architecture-dark_flowchart-v2-circleStart-margin" class="marker flowchart-v2" viewBox="0 0 10 10" refX="-2" refY="5" markerUnits="userSpaceOnUse" markerWidth="14" markerHeight="14" orient="auto"><circle cx="5" cy="5" r="5" class="arrowMarkerPath" style="stroke-width: 0; stroke-dasharray: 1, 0;"/></marker><marker id="open-webui-architecture-dark_flowchart-v2-crossEnd" class="marker cross flowchart-v2" viewBox="0 0 11 11" refX="12" refY="5.2" markerUnits="userSpaceOnUse" markerWidth="11" markerHeight="11" orient="auto"><path d="M 1,1 l 9,9 M 10,1 l -9,9" class="arrowMarkerPath" style="stroke-width: 2; stroke-dasharray: 1, 0;"/></marker><marker id="open-webui-architecture-dark_flowchart-v2-crossStart" class="marker cross flowchart-v2" viewBox="0 0 11 11" refX="-1" refY="5.2" markerUnits="userSpaceOnUse" markerWidth="11" markerHeight="11" orient="auto"><path d="M 1,1 l 9,9 M 10,1 l -9,9" class="arrowMarkerPath" style="stroke-width: 2; stroke-dasharray: 1, 0;"/></marker><marker id="open-webui-architecture-dark_flowchart-v2-crossEnd-margin" class="marker cross flowchart-v2" viewBox="0 0 15 15" refX="17.7" refY="7.5" markerUnits="userSpaceOnUse" markerWidth="12" markerHeight="12" orient="auto"><path d="M 1,1 L 14,14 M 1,14 L 14,1" class="arrowMarkerPath" style="stroke-width: 2.5;"/></marker><marker id="open-webui-architecture-dark_flowchart-v2-crossStart-margin" class="marker cross flowchart-v2" viewBox="0 0 15 15" refX="-3.5" refY="7.5" markerUnits="userSpaceOnUse" markerWidth="12" markerHeight="12" orient="auto"><path d="M 1,1 L 14,14 M 1,14 L 14,1" class="arrowMarkerPath" style="stroke-width: 2.5; stroke-dasharray: 1, 0;"/></marker><g class="root"><g class="clusters"><g class="cluster" id="open-webui-architecture-dark-vpc" data-look="classic"><rect style="" x="8" y="323" width="800.8984375" height="900"/><g class="cluster-label" transform="translate(206.45703125, 323)"><foreignObject width="403.984375" height="27"><div xmlns="http://www.w3.org/1999/xhtml" style="display: table-cell; white-space: nowrap; line-height: 1.5;"><span class="nodeLabel"><p>Amazon VPC — private application and data tier</p></span></div></foreignObject></g></g></g><g class="edgePaths"><path d="M760.54,35.889L662.284,44.991C564.027,54.092,367.513,72.296,269.257,87.481C171,102.667,171,114.833,171,120.917L171,127" id="open-webui-architecture-dark-L_user_cloudfront_0" class="edge-thickness-normal edge-pattern-solid edge-thickness-normal edge-pattern-solid flowchart-link" style=";" data-edge="true" data-et="edge" data-id="L_user_cloudfront_0" data-points="W3sieCI6NzYwLjU0MDQ2MzI1MDU1MTQsInkiOjM1Ljg4ODcwNTY2OTc4NjQ3NX0seyJ4IjoxNzEsInkiOjkwLjV9LHsieCI6MTcxLCJ5IjoxMzF9XQ==" data-look="classic" marker-end="url(#open-webui-architecture-dark_flowchart-v2-pointEnd)"/><path d="M899.949,39.225L962.94,47.771C1025.932,56.317,1151.915,73.408,1214.907,97.954C1277.898,122.5,1277.898,154.5,1277.898,186.5C1277.898,218.5,1277.898,250.5,1277.898,273.25C1277.898,296,1277.898,309.5,1277.898,324.583C1277.898,339.667,1277.898,356.333,1277.898,364.667L1277.898,373" id="open-webui-architecture-dark-L_user_cognito_0" class="edge-thickness-normal edge-pattern-solid edge-thickness-normal edge-pattern-solid flowchart-link" style=";" data-edge="true" data-et="edge" data-id="L_user_cognito_0" data-points="W3sieCI6ODk1Ljk4NTE0OTY2NzQzNzksInkiOjM4LjY4NzM1MzQ1MzkxMTY0fSx7IngiOjEyNzcuODk4NDM3NSwieSI6OTAuNX0seyJ4IjoxMjc3Ljg5ODQzNzUsInkiOjE4Ni41fSx7IngiOjEyNzcuODk4NDM3NSwieSI6MjgyLjV9LHsieCI6MTI3Ny44OTg0Mzc1LCJ5IjozMjN9LHsieCI6MTI3Ny44OTg0Mzc1LCJ5IjozNzd9XQ==" data-look="classic" marker-start="url(#open-webui-architecture-dark_flowchart-v2-pointStart)" marker-end="url(#open-webui-architecture-dark_flowchart-v2-pointEnd)"/><path d="M171,474.5L171,490.25C171,506,171,537.5,190.911,566.126C210.822,594.753,250.644,620.505,270.554,633.381L290.465,646.258" id="open-webui-architecture-dark-L_alb_owui_0" class="edge-thickness-normal edge-pattern-solid edge-thickness-normal edge-pattern-solid flowchart-link" style=";" data-edge="true" data-et="edge" data-id="L_alb_owui_0" data-points="W3sieCI6MTcxLCJ5Ijo0NzQuNX0seyJ4IjoxNzEsInkiOjU2OX0seyJ4IjoyOTMuODI0MjE4NzUsInkiOjY0OC40Mjk3MzEzMTY1MzM1fV0=" data-look="classic" marker-end="url(#open-webui-architecture-dark_flowchart-v2-pointEnd)"/><path d="M290.385,811.742L266.737,825.785C243.09,839.828,195.795,867.914,172.147,898.838C148.5,929.762,148.5,963.525,148.5,980.406L148.5,997.287" id="open-webui-architecture-dark-L_owui_data_0" class="edge-thickness-normal edge-pattern-solid edge-thickness-normal edge-pattern-solid flowchart-link" style=";" data-edge="true" data-et="edge" data-id="L_owui_data_0" data-points="W3sieCI6MjkzLjgyNDIxODc1LCJ5Ijo4MDkuNjk5ODkyMTcyNTgwNn0seyJ4IjoxNDguNSwieSI6ODk2fSx7IngiOjE0OC41LCJ5IjoxMDAxLjI4Njc2NjA1MjI0NjF9XQ==" data-look="classic" marker-start="url(#open-webui-architecture-dark_flowchart-v2-pointStart)" marker-end="url(#open-webui-architecture-dark_flowchart-v2-pointEnd)"/><path d="M171,242L171,248.75C171,255.5,171,269,171,282.5C171,296,171,309.5,171,326.833C171,344.167,171,365.333,171,375.917L171,386.5" id="open-webui-architecture-dark-L_cloudfront_alb_0" class="edge-thickness-normal edge-pattern-solid edge-thickness-normal edge-pattern-solid flowchart-link" style=";" data-edge="true" data-et="edge" data-id="L_cloudfront_alb_0" data-points="W3sieCI6MTcxLCJ5IjoyNDJ9LHsieCI6MTcxLCJ5IjoyODIuNX0seyJ4IjoxNzEsInkiOjMyM30seyJ4IjoxNzEsInkiOjM5MC41fV0=" data-look="classic" marker-end="url(#open-webui-architecture-dark_flowchart-v2-pointEnd)"/><path d="M1147.898,462.627L1071.398,480.356C994.898,498.085,841.898,533.542,743.453,564.807C645.009,596.072,601.119,623.143,579.174,636.679L557.229,650.215" id="open-webui-architecture-dark-L_cognito_owui_0" class="edge-thickness-normal edge-pattern-dotted edge-thickness-normal edge-pattern-solid flowchart-link" style=";" data-edge="true" data-et="edge" data-id="L_cognito_owui_0" data-points="W3sieCI6MTE0Ny44OTg0Mzc1LCJ5Ijo0NjIuNjI3MzM0NDY1MTk1MjV9LHsieCI6Njg4Ljg5ODQzNzUsInkiOjU2OX0seyJ4Ijo1NTMuODI0MjE4NzUsInkiOjY1Mi4zMTQ5MTAzMjg3N31d" data-look="classic" marker-end="url(#open-webui-architecture-dark_flowchart-v2-pointEnd)"/><path d="M838.007,464.382L764.781,481.818C691.554,499.254,545.101,534.127,473.159,559.905C401.217,585.682,403.786,602.364,405.07,610.705L406.355,619.047" id="open-webui-architecture-dark-L_services_owui_0" class="edge-thickness-normal edge-pattern-solid edge-thickness-normal edge-pattern-solid flowchart-link" style=";" data-edge="true" data-et="edge" data-id="L_services_owui_0" data-points="W3sieCI6ODQxLjg5ODQzNzUsInkiOjQ2My40NTUwODA2ODAzMzE0M30seyJ4IjozOTguNjQ4NDM3NSwieSI6NTY5fSx7IngiOjQwNi45NjMzNzQ0MjY2MDU1LCJ5Ijo2MjN9XQ==" data-look="classic" marker-start="url(#open-webui-architecture-dark_flowchart-v2-pointStart)" marker-end="url(#open-webui-architecture-dark_flowchart-v2-pointEnd)"/><path d="M457.31,842L460.063,851C462.815,860,468.32,878,471.072,916.5C473.824,955,473.824,1014,473.824,1068.5C473.824,1123,473.824,1173,473.824,1209.25C473.824,1245.5,473.824,1268,546.45,1301.819C619.076,1335.638,764.327,1380.776,836.953,1403.345L909.579,1425.914" id="open-webui-architecture-dark-L_owui_gateway_0" class="edge-thickness-normal edge-pattern-solid edge-thickness-normal edge-pattern-solid flowchart-link" style=";" data-edge="true" data-et="edge" data-id="L_owui_gateway_0" data-points="W3sieCI6NDU3LjMxMDQ1NzI4MjExMDA2LCJ5Ijo4NDJ9LHsieCI6NDczLjgyNDIxODc1LCJ5Ijo4OTZ9LHsieCI6NDczLjgyNDIxODc1LCJ5IjoxMDczfSx7IngiOjQ3My44MjQyMTg3NSwieSI6MTIyM30seyJ4Ijo0NzMuODI0MjE4NzUsInkiOjEyOTAuNX0seyJ4Ijo5MTMuMzk4NDM3NSwieSI6MTQyNy4xMDE0MDE4MTQ2Nzh9XQ==" data-look="classic" marker-end="url(#open-webui-architecture-dark_flowchart-v2-pointEnd)"/><path d="M1277.898,488L1277.898,501.5C1277.898,515,1277.898,542,1277.898,582.75C1277.898,623.5,1277.898,678,1277.898,732.5C1277.898,787,1277.898,841.5,1277.898,898.25C1277.898,955,1277.898,1014,1277.898,1068.5C1277.898,1123,1277.898,1173,1277.898,1209.25C1277.898,1245.5,1277.898,1268,1261.014,1291.994C1244.129,1315.989,1210.36,1341.478,1193.476,1354.222L1176.591,1366.967" id="open-webui-architecture-dark-L_cognito_gateway_0" class="edge-thickness-normal edge-pattern-dotted edge-thickness-normal edge-pattern-solid flowchart-link" style=";" data-edge="true" data-et="edge" data-id="L_cognito_gateway_0" data-points="W3sieCI6MTI3Ny44OTg0Mzc1LCJ5Ijo0ODh9LHsieCI6MTI3Ny44OTg0Mzc1LCJ5Ijo1Njl9LHsieCI6MTI3Ny44OTg0Mzc1LCJ5Ijo3MzIuNX0seyJ4IjoxMjc3Ljg5ODQzNzUsInkiOjg5Nn0seyJ4IjoxMjc3Ljg5ODQzNzUsInkiOjEwNzN9LHsieCI6MTI3Ny44OTg0Mzc1LCJ5IjoxMjIzfSx7IngiOjEyNzcuODk4NDM3NSwieSI6MTI5MC41fSx7IngiOjExNzMuMzk4NDM3NSwieSI6MTM2OS4zNzYzMzI2MjI2MDEyfV0=" data-look="classic" marker-end="url(#open-webui-architecture-dark_flowchart-v2-pointEnd)"/><path d="M1043.398,1577L1043.398,1586C1043.398,1595,1043.398,1613,1043.398,1630.333C1043.398,1647.667,1043.398,1664.333,1043.398,1672.667L1043.398,1681" id="open-webui-architecture-dark-L_gateway_bedrock_0" class="edge-thickness-normal edge-pattern-solid edge-thickness-normal edge-pattern-solid flowchart-link" style=";" data-edge="true" data-et="edge" data-id="L_gateway_bedrock_0" data-points="W3sieCI6MTA0My4zOTg0Mzc1LCJ5IjoxNTc3fSx7IngiOjEwNDMuMzk4NDM3NSwieSI6MTYzMX0seyJ4IjoxMDQzLjM5ODQzNzUsInkiOjE2ODV9XQ==" data-look="classic" marker-end="url(#open-webui-architecture-dark_flowchart-v2-pointEnd)"/><path d="M553.824,812.685L576.337,826.571C598.849,840.457,643.874,868.228,703.206,900.498C762.539,932.768,836.179,969.537,873,987.921L909.82,1006.305" id="open-webui-architecture-dark-L_owui_governance_0" class="edge-thickness-normal edge-pattern-dotted edge-thickness-normal edge-pattern-solid flowchart-link" style=";" data-edge="true" data-et="edge" data-id="L_owui_governance_0" data-points="W3sieCI6NTUzLjgyNDIxODc1LCJ5Ijo4MTIuNjg1MDg5NjcxMjN9LHsieCI6Njg4Ljg5ODQzNzUsInkiOjg5Nn0seyJ4Ijo5MTMuMzk4NDM3NSwieSI6MTAwOC4wOTE2Nzg0MjAzMTAyfV0=" data-look="classic" marker-end="url(#open-webui-architecture-dark_flowchart-v2-pointEnd)"/><path d="M1043.398,1196L1043.398,1200.5C1043.398,1205,1043.398,1214,1043.398,1229.75C1043.398,1245.5,1043.398,1268,1043.398,1289.833C1043.398,1311.667,1043.398,1332.833,1043.398,1343.417L1043.398,1354" id="open-webui-architecture-dark-L_governance_gateway_0" class="edge-thickness-normal edge-pattern-dotted edge-thickness-normal edge-pattern-solid flowchart-link" style=";" data-edge="true" data-et="edge" data-id="L_governance_gateway_0" data-points="W3sieCI6MTA0My4zOTg0Mzc1LCJ5IjoxMTk2fSx7IngiOjEwNDMuMzk4NDM3NSwieSI6MTIyM30seyJ4IjoxMDQzLjM5ODQzNzUsInkiOjEyOTAuNX0seyJ4IjoxMDQzLjM5ODQzNzUsInkiOjEzNTh9XQ==" data-look="classic" marker-end="url(#open-webui-architecture-dark_flowchart-v2-pointEnd)"/></g><g class="edgeLabels"><g class="edgeLabel" transform="translate(171, 90.5)"><g class="label" data-id="L_user_cloudfront_0" transform="translate(-27.25, -13.5)"><foreignObject width="54.5" height="27"><div xmlns="http://www.w3.org/1999/xhtml" class="labelBkg" style="display: table-cell; white-space: nowrap; line-height: 1.5; max-width: 200px; text-align: center;"><span class="edgeLabel"><p>HTTPS</p></span></div></foreignObject></g></g><g class="edgeLabel" transform="translate(1277.8984375, 186.5)"><g class="label" data-id="L_user_cognito_0" transform="translate(-100, -27)"><foreignObject width="200" height="54"><div xmlns="http://www.w3.org/1999/xhtml" class="labelBkg" style="display: table; white-space: break-spaces; line-height: 1.5; max-width: 200px; text-align: center; width: 200px;"><span class="edgeLabel"><p>OIDC authorization code flow</p></span></div></foreignObject></g></g><g class="edgeLabel" transform="translate(171, 569)"><g class="label" data-id="L_alb_owui_0" transform="translate(-47.6484375, -13.5)"><foreignObject width="95.296875" height="27"><div xmlns="http://www.w3.org/1999/xhtml" class="labelBkg" style="display: table-cell; white-space: nowrap; line-height: 1.5; max-width: 200px; text-align: center;"><span class="edgeLabel"><p>HTTP :8080</p></span></div></foreignObject></g></g><g class="edgeLabel"><g class="label" data-id="L_owui_data_0" transform="translate(0, 0)"><foreignObject width="0" height="0"><div xmlns="http://www.w3.org/1999/xhtml" class="labelBkg" style="display: table-cell; white-space: nowrap; line-height: 1.5; max-width: 200px; text-align: center;"><span class="edgeLabel"></span></div></foreignObject></g></g><g class="edgeLabel" transform="translate(171, 282.5)"><g class="label" data-id="L_cloudfront_alb_0" transform="translate(-89.390625, -13.5)"><foreignObject width="178.78125" height="27"><div xmlns="http://www.w3.org/1999/xhtml" class="labelBkg" style="display: table-cell; white-space: nowrap; line-height: 1.5; max-width: 200px; text-align: center;"><span class="edgeLabel"><p>VPC origin over HTTP</p></span></div></foreignObject></g></g><g class="edgeLabel" transform="translate(841.096, 533.72841)"><g class="label" data-id="L_cognito_owui_0" transform="translate(-100, -27)"><foreignObject width="200" height="54"><div xmlns="http://www.w3.org/1999/xhtml" class="labelBkg" style="display: table; white-space: break-spaces; line-height: 1.5; max-width: 200px; text-align: center; width: 200px;"><span class="edgeLabel"><p>OAuth token and group claims</p></span></div></foreignObject></g></g><g class="edgeLabel" transform="translate(593.69824, 522.55552)"><g class="label" data-id="L_services_owui_0" transform="translate(-100, -27)"><foreignObject width="200" height="54"><div xmlns="http://www.w3.org/1999/xhtml" class="labelBkg" style="display: table; white-space: break-spaces; line-height: 1.5; max-width: 200px; text-align: center; width: 200px;"><span class="edgeLabel"><p>Objects and application secrets</p></span></div></foreignObject></g></g><g class="edgeLabel" transform="translate(473.82421875, 1073)"><g class="label" data-id="L_owui_gateway_0" transform="translate(-100, -27)"><foreignObject width="200" height="54"><div xmlns="http://www.w3.org/1999/xhtml" class="labelBkg" style="display: table; white-space: break-spaces; line-height: 1.5; max-width: 200px; text-align: center; width: 200px;"><span class="edgeLabel"><p>Cognito bearer access token · three API lanes</p></span></div></foreignObject></g></g><g class="edgeLabel" transform="translate(1277.8984375, 896)"><g class="label" data-id="L_cognito_gateway_0" transform="translate(-81.2734375, -13.5)"><foreignObject width="162.546875" height="27"><div xmlns="http://www.w3.org/1999/xhtml" class="labelBkg" style="display: table-cell; white-space: nowrap; line-height: 1.5; max-width: 200px; text-align: center;"><span class="edgeLabel"><p>JWT trust metadata</p></span></div></foreignObject></g></g><g class="edgeLabel" transform="translate(1043.3984375, 1631)"><g class="label" data-id="L_gateway_bedrock_0" transform="translate(-100, -27)"><foreignObject width="200" height="54"><div xmlns="http://www.w3.org/1999/xhtml" class="labelBkg" style="display: table; white-space: break-spaces; line-height: 1.5; max-width: 200px; text-align: center; width: 200px;"><span class="edgeLabel"><p>Gateway IAM role · SigV4</p></span></div></foreignObject></g></g><g class="edgeLabel" transform="translate(730.1546, 916.59899)"><g class="label" data-id="L_owui_governance_0" transform="translate(-100, -27)"><foreignObject width="200" height="54"><div xmlns="http://www.w3.org/1999/xhtml" class="labelBkg" style="display: table; white-space: break-spaces; line-height: 1.5; max-width: 200px; text-align: center; width: 200px;"><span class="edgeLabel"><p>Persisted provider usage</p></span></div></foreignObject></g></g><g class="edgeLabel" transform="translate(1043.3984375, 1290.5)"><g class="label" data-id="L_governance_gateway_0" transform="translate(-100, -40.5)"><foreignObject width="200" height="81"><div xmlns="http://www.w3.org/1999/xhtml" class="labelBkg" style="display: table; white-space: break-spaces; line-height: 1.5; max-width: 200px; text-align: center; width: 200px;"><span class="edgeLabel"><p>Policy check and reservation<br />with --metering</p></span></div></foreignObject></g></g></g><g class="nodes"><g class="node default" id="open-webui-architecture-dark-flowchart-user-0" data-look="classic" transform="translate(828.32421875, 29)"><g class="basic label-container outer-path"><path d="M-48.2890625 -21 C-12.415006973948252 -21, 23.459048552103496 -21, 48.2890625 -21 C48.2890625 -21, 48.2890625 -21, 48.2890625 -21 C48.649343458671616 -20.988446490899747, 49.00962441734323 -20.97689298179949, 49.63453711959497 -20.956853247757063 C50.141660937686176 -20.90793162293143, 50.648784755777385 -20.859009998105794, 50.97448289537462 -20.82759029028817 C51.446037405331076 -20.75135301407825, 51.91759191528753 -20.675115737868335, 52.30339370272881 -20.612742296812375 C52.823952035711365 -20.49392825426969, 53.344510368693925 -20.375114211727006, 53.61580876209965 -20.31319212381962 C54.03275213852302 -20.189445518277605, 54.4496955149464 -20.06569891273559, 54.906335078496035 -19.93017068722404 C55.37690416785798 -19.756996912445867, 55.847473257219924 -19.583823137667693, 56.169669602466854 -19.465251904266456 C56.590929436867604 -19.27877267180624, 57.01218927126835 -19.09229343934603, 57.40062102146872 -18.9203462259508 C57.770618665924324 -18.72731869183312, 58.14061631037992 -18.534291157715437, 58.59413109208269 -18.29769278659118 C58.996731012690056 -18.053634348779244, 59.39933093329742 -17.809575910967308, 59.74529542542152 -17.599850202728653 C60.13645479286138 -17.326994361018713, 60.52761416030124 -17.05413851930877, 60.84938364031554 -16.82968605922709 C61.10298307396195 -16.62744725945842, 61.35658250760837 -16.425208459689756, 61.901858801463554 -15.990365125751826 C62.21950156161897 -15.701890375345569, 62.53714432177438 -15.413415624939311, 62.898396062673214 -15.08533635205228 C63.20229371897652 -14.771537071457518, 63.50619137527983 -14.457737790862755, 63.83490043858163 -14.118318695487657 C64.15980487369104 -13.736667458422048, 64.48470930880046 -13.35501622135644, 64.70752363182862 -13.093285839033406 C64.98884008713009 -12.716347417385753, 65.27015654243155 -12.3394089957381, 65.51267984653607 -12.014449862565568 C65.80540462771347 -11.564745991067232, 66.09812940889087 -11.115042119568896, 66.24706052311227 -10.886243934521028 C66.44524192148879 -10.534352793660824, 66.6434233198653 -10.182461652800622, 66.907647933833 -9.713304095057541 C67.05874815740515 -9.39954124778313, 67.20984838097729 -9.085778400508717, 67.49172758333206 -8.500450205570274 C67.62465355612821 -8.172120482814952, 67.75757952892434 -7.84379076005963, 67.99689936304496 -7.25266614284747 C68.10986701632706 -6.912425570113044, 68.22283466960916 -6.572184997378616, 68.42108741376987 -5.975079319251687 C68.55655213231542 -5.458493636657123, 68.69201685086095 -4.941907954062559, 68.76254865581829 -4.672939613082605 C68.83160016552232 -4.318374704794207, 68.90065167522633 -3.9638097965058097, 69.01987995170344 -3.3515977957009717 C69.08082442408265 -2.8789245027751926, 69.14176889646185 -2.4062512098494135, 69.19202387193316 -2.016483544061321 C69.22556681132373 -1.4940251876799389, 69.25910975071429 -0.9715668312985566, 69.27827304021444 -0.6730831290047585 C69.27827304021444 -0.402056932128972, 69.27827304021444 -0.13103073525318543, 69.27827304021444 0.6730831290047534 C69.25850653907602 0.9809623394681157, 69.23874003793762 1.2888415499314783, 69.19202387193316 2.0164835440613067 C69.12735240182766 2.518062695373267, 69.06268093172218 3.019641846685227, 69.01987995170346 3.351597795700957 C68.95086977790595 3.7059504528457716, 68.88185960410844 4.060303109990586, 68.76254865581829 4.6729396130826 C68.6430534989957 5.1286264355757405, 68.52355834217309 5.58431325806888, 68.42108741376987 5.975079319251673 C68.31348437810738 6.299162518451625, 68.20588134244487 6.623245717651577, 67.99689936304497 7.252666142847456 C67.86953484354153 7.567258968446433, 67.74217032403809 7.88185179404541, 67.49172758333206 8.500450205570269 C67.31246741429796 8.872687782122766, 67.13320724526385 9.24492535867526, 66.907647933833 9.713304095057536 C66.74639651603158 9.999622315840613, 66.58514509823016 10.285940536623688, 66.24706052311227 10.886243934521024 C65.95450208153768 11.33569226372099, 65.66194363996311 11.785140592920957, 65.51267984653607 12.014449862565556 C65.35034056607734 12.231969708967567, 65.1880012856186 12.44948955536958, 64.70752363182862 13.0932858390334 C64.36856263888279 13.491448708774461, 64.02960164593696 13.889611578515522, 63.834900438581634 14.118318695487645 C63.60965945822208 14.350898500337285, 63.38441847786253 14.583478305186928, 62.89839606267322 15.085336352052275 C62.59803101607069 15.35811994015305, 62.29766596946817 15.630903528253825, 61.90185880146357 15.990365125751811 C61.641458143325906 16.198027721064058, 61.38105748518825 16.405690316376308, 60.84938364031554 16.829686059227086 C60.52819259539636 17.053735028026463, 60.207001550477194 17.27778399682584, 59.74529542542153 17.599850202728646 C59.32006430826666 17.857627804883354, 58.89483319111178 18.11540540703806, 58.59413109208269 18.297692786591178 C58.15627760574554 18.52612066995473, 57.71842411940838 18.75454855331828, 57.40062102146872 18.9203462259508 C56.96943601987297 19.111219035508622, 56.53825101827722 19.302091845066442, 56.16966960246687 19.465251904266456 C55.71020150422828 19.634340411694797, 55.25073340598969 19.803428919123135, 54.90633507849605 19.930170687224038 C54.47902423570784 20.056994302363194, 54.05171339291963 20.18381791750235, 53.615808762099675 20.313192123819615 C53.10942850693901 20.428770112620054, 52.60304825177835 20.544348101420496, 52.303393702728826 20.61274229681237 C51.96060686667637 20.668161414113715, 51.61782003062392 20.72358053141506, 50.974482895374635 20.827590290288168 C50.470738302084925 20.876185925361316, 49.96699370879522 20.92478156043446, 49.63453711959497 20.956853247757063 C49.277099178893906 20.9683155868046, 48.91966123819284 20.97977792585214, 48.28906250000001 21 C48.28906250000001 21, 48.2890625 21, 48.2890625 21 C12.46285836814102 21, -23.36334576371796 21, -48.28906249999999 21 C-48.587683619104745 20.99042380194106, -48.8863047382095 20.980847603882115, -49.63453711959496 20.956853247757063 C-50.0115202607518 20.920486137518225, -50.38850340190864 20.884119027279382, -50.97448289537463 20.827590290288168 C-51.3734481541065 20.763088681278187, -51.772413412838375 20.69858707226821, -52.30339370272882 20.61274229681237 C-52.601730097257004 20.544648961588226, -52.900066491785196 20.47655562636408, -53.61580876209965 20.31319212381962 C-54.012383459930035 20.195490835166627, -54.40895815776042 20.07778954651364, -54.90633507849602 19.930170687224045 C-55.30467828932785 19.783576703393656, -55.703021500159686 19.636982719563267, -56.16966960246686 19.465251904266456 C-56.42744785625204 19.35114111803597, -56.685226110037206 19.23703033180548, -57.400621021468716 18.920346225950805 C-57.71236932089365 18.757707337825135, -58.024117620318584 18.59506844969946, -58.59413109208269 18.29769278659118 C-58.96944476244289 18.070175434030883, -59.3447584328031 17.84265808147058, -59.74529542542151 17.59985020272866 C-60.016135903994915 17.410923609371206, -60.28697638256831 17.221997016013756, -60.84938364031554 16.82968605922709 C-61.09973894175767 16.630034368561354, -61.35009424319981 16.43038267789562, -61.901858801463554 15.990365125751827 C-62.17683383531649 15.740640075447303, -62.45180886916943 15.490915025142776, -62.89839606267321 15.08533635205229 C-63.24976851247372 14.722515449418626, -63.601140962274236 14.359694546784961, -63.83490043858163 14.118318695487652 C-64.03581393345758 13.882314272104647, -64.23672742833351 13.646309848721643, -64.70752363182862 13.093285839033408 C-64.87917886120488 12.863283469782328, -65.05083409058113 12.63328110053125, -65.51267984653607 12.01444986256557 C-65.75389485745076 11.64387883050077, -65.99510986836546 11.273307798435969, -66.24706052311225 10.886243934521037 C-66.45763221359539 10.512352575372411, -66.66820390407854 10.138461216223787, -66.907647933833 9.713304095057543 C-67.12558626871196 9.260750479548069, -67.3435246035909 8.808196864038596, -67.49172758333206 8.500450205570278 C-67.62075220895204 8.1817568857675, -67.74977683457202 7.863063565964723, -67.99689936304496 7.252666142847472 C-68.08898527835741 6.975318037824484, -68.18107119366987 6.697969932801494, -68.42108741376987 5.975079319251681 C-68.55752073062592 5.454799951505952, -68.693954047482 4.9345205837602215, -68.76254865581829 4.672939613082607 C-68.83957522669068 4.277424451224388, -68.91660179756308 3.8819092893661695, -69.01987995170344 3.351597795700974 C-69.07421244174616 2.9302057320934285, -69.12854493178887 2.5088136684858826, -69.19202387193316 2.016483544061333 C-69.21034017793525 1.73119229342269, -69.22865648393734 1.445901042784047, -69.27827304021444 0.6730831290047611 C-69.27827304021444 0.37575939567326505, -69.27827304021444 0.07843566234176902, -69.27827304021444 -0.6730831290047509 C-69.2539434462636 -1.052036193283757, -69.22961385231278 -1.430989257562763, -69.19202387193316 -2.016483544061304 C-69.14430276266796 -2.3865990439232445, -69.09658165340278 -2.756714543785185, -69.01987995170346 -3.3515977957009637 C-68.95434363173477 -3.6881129476340178, -68.88880731176609 -4.024628099567072, -68.76254865581829 -4.6729396130825975 C-68.64561423186613 -5.118861251312075, -68.52867980791399 -5.5647828895415525, -68.42108741376987 -5.975079319251671 C-68.33058634340529 -6.247654123802415, -68.2400852730407 -6.52022892835316, -67.99689936304497 -7.2526661428474455 C-67.8871206629449 -7.523821654521418, -67.77734196284482 -7.79497716619539, -67.49172758333206 -8.500450205570267 C-67.28166324499826 -8.936653298777221, -67.07159890666446 -9.372856391984174, -66.907647933833 -9.713304095057534 C-66.64695330907861 -10.176193799502228, -66.38625868432423 -10.639083503946921, -66.24706052311227 -10.88624393452103 C-66.02623609928608 -11.225489549178592, -65.80541167545988 -11.564735163836152, -65.51267984653607 -12.014449862565563 C-65.21059331901382 -12.419218288796579, -64.90850679149156 -12.823986715027592, -64.70752363182864 -13.0932858390334 C-64.37386978612503 -13.48521463163852, -64.0402159404214 -13.877143424243638, -63.834900438581634 -14.118318695487645 C-63.58504822315699 -14.376311621161973, -63.33519600773234 -14.634304546836303, -62.89839606267323 -15.085336352052268 C-62.64154270284462 -15.318603777481123, -62.384689343016 -15.551871202909975, -61.901858801463575 -15.99036512575181 C-61.59534056250945 -16.234805264524823, -61.28882232355532 -16.479245403297835, -60.849383640315544 -16.829686059227086 C-60.47605804883171 -17.090101830841824, -60.10273245734787 -17.350517602456563, -59.74529542542153 -17.599850202728646 C-59.39167457922469 -17.81421723779993, -59.03805373302785 -18.028584272871214, -58.5941310920827 -18.297692786591174 C-58.20614703366981 -18.50010382134953, -57.81816297525692 -18.702514856107886, -57.40062102146872 -18.9203462259508 C-57.00356676488726 -19.09611036714337, -56.606512508305805 -19.27187450833594, -56.16966960246687 -19.465251904266452 C-55.711838650389566 -19.63373792677383, -55.254007698312265 -19.802223949281203, -54.90633507849605 -19.930170687224038 C-54.601011721907 -20.020789056784665, -54.29568836531794 -20.11140742634529, -53.615808762099675 -20.31319212381961 C-53.13241449827841 -20.423523710094447, -52.64902023445714 -20.533855296369282, -52.303393702728826 -20.61274229681237 C-51.77307405422304 -20.69848026489249, -51.24275440571726 -20.78421823297261, -50.97448289537464 -20.827590290288168 C-50.45637881765987 -20.877571167553995, -49.93827473994509 -20.92755204481982, -49.634537119594974 -20.956853247757063 C-49.308267321098796 -20.9673160851492, -48.98199752260262 -20.977778922541333, -48.28906250000001 -21 C-48.28906250000001 -21, -48.2890625 -21, -48.2890625 -21" stroke="none" stroke-width="0" fill="#1f2020" style=""/><path d="M-48.2890625 -21 C-22.706546035414647 -21, 2.8759704291707067 -21, 48.2890625 -21 M-48.2890625 -21 C-25.077798587521997 -21, -1.8665346750439937 -21, 48.2890625 -21 M48.2890625 -21 C48.2890625 -21, 48.2890625 -21, 48.2890625 -21 M48.2890625 -21 C48.2890625 -21, 48.2890625 -21, 48.2890625 -21 M48.2890625 -21 C48.588804600097276 -20.990387854262483, 48.88854670019455 -20.98077570852497, 49.63453711959497 -20.956853247757063 M48.2890625 -21 C48.72285407735924 -20.98608914843817, 49.15664565471847 -20.972178296876347, 49.63453711959497 -20.956853247757063 M49.63453711959497 -20.956853247757063 C50.15091710568003 -20.90703869153723, 50.6672970917651 -20.857224135317402, 50.97448289537462 -20.82759029028817 M49.63453711959497 -20.956853247757063 C50.034351554673215 -20.918283630052276, 50.434165989751456 -20.879714012347485, 50.97448289537462 -20.82759029028817 M50.97448289537462 -20.82759029028817 C51.37571797251976 -20.76272171463984, 51.7769530496649 -20.697853138991512, 52.30339370272881 -20.612742296812375 M50.97448289537462 -20.82759029028817 C51.353609546007064 -20.766296033585004, 51.7327361966395 -20.70500177688184, 52.30339370272881 -20.612742296812375 M52.30339370272881 -20.612742296812375 C52.73940022327842 -20.51322665370537, 53.175406743828034 -20.413711010598366, 53.61580876209965 -20.31319212381962 M52.30339370272881 -20.612742296812375 C52.77723889360398 -20.504590224123962, 53.251084084479146 -20.39643815143555, 53.61580876209965 -20.31319212381962 M53.61580876209965 -20.31319212381962 C53.979413607607746 -20.205276114273595, 54.343018453115846 -20.097360104727574, 54.906335078496035 -19.93017068722404 M53.61580876209965 -20.31319212381962 C53.999125870647184 -20.19942561807527, 54.382442979194714 -20.085659112330926, 54.906335078496035 -19.93017068722404 M54.906335078496035 -19.93017068722404 C55.24396352160895 -19.805920299155375, 55.58159196472186 -19.681669911086704, 56.169669602466854 -19.465251904266456 M54.906335078496035 -19.93017068722404 C55.2533878764771 -19.802452049446114, 55.60044067445816 -19.674733411668186, 56.169669602466854 -19.465251904266456 M56.169669602466854 -19.465251904266456 C56.64323264659458 -19.2556195923797, 57.11679569072232 -19.045987280492938, 57.40062102146872 -18.9203462259508 M56.169669602466854 -19.465251904266456 C56.63608408244381 -19.258784049674627, 57.10249856242076 -19.052316195082796, 57.40062102146872 -18.9203462259508 M57.40062102146872 -18.9203462259508 C57.659760921307736 -18.785153106191817, 57.91890082114675 -18.64995998643283, 58.59413109208269 -18.29769278659118 M57.40062102146872 -18.9203462259508 C57.66756614955408 -18.781081123615188, 57.93451127763943 -18.641816021279574, 58.59413109208269 -18.29769278659118 M58.59413109208269 -18.29769278659118 C58.900528369211614 -18.111952956605364, 59.20692564634054 -17.926213126619547, 59.74529542542152 -17.599850202728653 M58.59413109208269 -18.29769278659118 C58.89067807828624 -18.11792426085106, 59.187225064489795 -17.938155735110936, 59.74529542542152 -17.599850202728653 M59.74529542542152 -17.599850202728653 C60.15894355497617 -17.311307174090256, 60.57259168453081 -17.022764145451863, 60.84938364031554 -16.82968605922709 M59.74529542542152 -17.599850202728653 C60.05090712329555 -17.386668712008902, 60.356518821169594 -17.17348722128915, 60.84938364031554 -16.82968605922709 M60.84938364031554 -16.82968605922709 C61.09817158075571 -16.631284297251188, 61.34695952119589 -16.432882535275287, 61.901858801463554 -15.990365125751826 M60.84938364031554 -16.82968605922709 C61.24479717064053 -16.514354291188862, 61.640210700965525 -16.19902252315063, 61.901858801463554 -15.990365125751826 M61.901858801463554 -15.990365125751826 C62.18727995963756 -15.731153181728214, 62.47270111781156 -15.471941237704602, 62.898396062673214 -15.08533635205228 M61.901858801463554 -15.990365125751826 C62.130648523271056 -15.782584353850574, 62.35943824507856 -15.574803581949322, 62.898396062673214 -15.08533635205228 M62.898396062673214 -15.08533635205228 C63.25654479660151 -14.715518379713412, 63.614693530529806 -14.345700407374546, 63.83490043858163 -14.118318695487657 M62.898396062673214 -15.08533635205228 C63.206234089017684 -14.767468315879626, 63.51407211536215 -14.44960027970697, 63.83490043858163 -14.118318695487657 M63.83490043858163 -14.118318695487657 C64.1447217056138 -13.754385005902142, 64.454542972646 -13.390451316316625, 64.70752363182862 -13.093285839033406 M63.83490043858163 -14.118318695487657 C64.01931712978947 -13.901692356387924, 64.20373382099731 -13.685066017288191, 64.70752363182862 -13.093285839033406 M64.70752363182862 -13.093285839033406 C64.92604712427557 -12.800484267054204, 65.14457061672252 -12.507682695075, 65.51267984653607 -12.014449862565568 M64.70752363182862 -13.093285839033406 C64.88456413829692 -12.856067689087817, 65.06160464476524 -12.618849539142229, 65.51267984653607 -12.014449862565568 M65.51267984653607 -12.014449862565568 C65.75368970317125 -11.64419400256576, 65.9946995598064 -11.273938142565953, 66.24706052311227 -10.886243934521028 M65.51267984653607 -12.014449862565568 C65.74844728433759 -11.652247765680809, 65.98421472213911 -11.29004566879605, 66.24706052311227 -10.886243934521028 M66.24706052311227 -10.886243934521028 C66.39856905655336 -10.617225191493745, 66.55007758999444 -10.34820644846646, 66.907647933833 -9.713304095057541 M66.24706052311227 -10.886243934521028 C66.49459555638681 -10.446720417301925, 66.74213058966136 -10.007196900082825, 66.907647933833 -9.713304095057541 M66.907647933833 -9.713304095057541 C67.06918471164077 -9.377869519606355, 67.23072148944854 -9.042434944155168, 67.49172758333206 -8.500450205570274 M66.907647933833 -9.713304095057541 C67.12286719543451 -9.266396693387533, 67.338086457036 -8.819489291717524, 67.49172758333206 -8.500450205570274 M67.49172758333206 -8.500450205570274 C67.61175059938769 -8.20399103542571, 67.73177361544333 -7.907531865281146, 67.99689936304496 -7.25266614284747 M67.49172758333206 -8.500450205570274 C67.65087366432059 -8.10735630864845, 67.81001974530912 -7.714262411726624, 67.99689936304496 -7.25266614284747 M67.99689936304496 -7.25266614284747 C68.13101832844153 -6.8487211880282, 68.26513729383808 -6.4447762332089304, 68.42108741376987 -5.975079319251687 M67.99689936304496 -7.25266614284747 C68.13932557444268 -6.823701086652639, 68.28175178584038 -6.394736030457806, 68.42108741376987 -5.975079319251687 M68.42108741376987 -5.975079319251687 C68.55713161029315 -5.456283835980635, 68.69317580681646 -4.9374883527095825, 68.76254865581829 -4.672939613082605 M68.42108741376987 -5.975079319251687 C68.49180989951205 -5.705383829797542, 68.56253238525423 -5.435688340343396, 68.76254865581829 -4.672939613082605 M68.76254865581829 -4.672939613082605 C68.81464818874183 -4.405419522760418, 68.86674772166536 -4.137899432438232, 69.01987995170344 -3.3515977957009717 M68.76254865581829 -4.672939613082605 C68.84579385948511 -4.245493086133507, 68.92903906315193 -3.818046559184409, 69.01987995170344 -3.3515977957009717 M69.01987995170344 -3.3515977957009717 C69.07014096041314 -2.961783337307311, 69.12040196912285 -2.5719688789136503, 69.19202387193316 -2.016483544061321 M69.01987995170344 -3.3515977957009717 C69.06030009079726 -3.0381071787486054, 69.10072022989108 -2.724616561796239, 69.19202387193316 -2.016483544061321 M69.19202387193316 -2.016483544061321 C69.21379004892368 -1.6774577680920086, 69.23555622591421 -1.3384319921226964, 69.27827304021444 -0.6730831290047585 M69.19202387193316 -2.016483544061321 C69.22000736363246 -1.5806180729767463, 69.24799085533176 -1.1447526018921719, 69.27827304021444 -0.6730831290047585 M69.27827304021444 -0.6730831290047585 C69.27827304021444 -0.22686940802346778, 69.27827304021444 0.21934431295782297, 69.27827304021444 0.6730831290047534 M69.27827304021444 -0.6730831290047585 C69.27827304021444 -0.2019780257366035, 69.27827304021444 0.2691270775315515, 69.27827304021444 0.6730831290047534 M69.27827304021444 0.6730831290047534 C69.24800964522163 1.1444599341905268, 69.21774625022883 1.6158367393763002, 69.19202387193316 2.0164835440613067 M69.27827304021444 0.6730831290047534 C69.25366205074884 1.0564191555645557, 69.22905106128324 1.4397551821243582, 69.19202387193316 2.0164835440613067 M69.19202387193316 2.0164835440613067 C69.15532785485571 2.301090606065847, 69.11863183777825 2.585697668070388, 69.01987995170346 3.351597795700957 M69.19202387193316 2.0164835440613067 C69.13722382480927 2.441501888060959, 69.08242377768538 2.866520232060611, 69.01987995170346 3.351597795700957 M69.01987995170346 3.351597795700957 C68.91722658455119 3.8787011402310525, 68.8145732173989 4.4058044847611475, 68.76254865581829 4.6729396130826 M69.01987995170346 3.351597795700957 C68.93829305794276 3.7705292517660594, 68.85670616418204 4.189460707831161, 68.76254865581829 4.6729396130826 M68.76254865581829 4.6729396130826 C68.68443313614632 4.97082794507219, 68.60631761647436 5.268716277061779, 68.42108741376987 5.975079319251673 M68.76254865581829 4.6729396130826 C68.65725349875994 5.074475682155844, 68.55195834170158 5.476011751229089, 68.42108741376987 5.975079319251673 M68.42108741376987 5.975079319251673 C68.2783905147333 6.404859643486536, 68.13569361569672 6.834639967721398, 67.99689936304497 7.252666142847456 M68.42108741376987 5.975079319251673 C68.29958267277165 6.341032239986885, 68.17807793177342 6.7069851607220965, 67.99689936304497 7.252666142847456 M67.99689936304497 7.252666142847456 C67.8575121765245 7.596955188420977, 67.718124990004 7.941244233994498, 67.49172758333206 8.500450205570269 M67.99689936304497 7.252666142847456 C67.80850314307789 7.718008448559296, 67.6201069231108 8.183350754271135, 67.49172758333206 8.500450205570269 M67.49172758333206 8.500450205570269 C67.3046719386178 8.88887525416906, 67.11761629390355 9.277300302767848, 66.907647933833 9.713304095057536 M67.49172758333206 8.500450205570269 C67.2614257054207 8.978676982724, 67.03112382750935 9.456903759877731, 66.907647933833 9.713304095057536 M66.907647933833 9.713304095057536 C66.67946338370335 10.118468870003978, 66.45127883357371 10.52363364495042, 66.24706052311227 10.886243934521024 M66.907647933833 9.713304095057536 C66.67652018330652 10.123694820339914, 66.44539243278004 10.53408554562229, 66.24706052311227 10.886243934521024 M66.24706052311227 10.886243934521024 C66.05183706856033 11.186159585550511, 65.8566136140084 11.486075236579996, 65.51267984653607 12.014449862565556 M66.24706052311227 10.886243934521024 C66.08367396189425 11.137249567986734, 65.92028740067622 11.388255201452441, 65.51267984653607 12.014449862565556 M65.51267984653607 12.014449862565556 C65.27306173894834 12.335516297074442, 65.0334436313606 12.656582731583327, 64.70752363182862 13.0932858390334 M65.51267984653607 12.014449862565556 C65.31715432158347 12.276436253260282, 65.12162879663086 12.538422643955009, 64.70752363182862 13.0932858390334 M64.70752363182862 13.0932858390334 C64.4165899159834 13.435033136262607, 64.12565620013817 13.776780433491815, 63.834900438581634 14.118318695487645 M64.70752363182862 13.0932858390334 C64.49853081782028 13.338780690395609, 64.28953800381193 13.584275541757819, 63.834900438581634 14.118318695487645 M63.834900438581634 14.118318695487645 C63.64464625601414 14.314771759147463, 63.454392073446655 14.511224822807282, 62.89839606267322 15.085336352052275 M63.834900438581634 14.118318695487645 C63.5067138602977 14.457198282184988, 63.17852728201376 14.796077868882332, 62.89839606267322 15.085336352052275 M62.89839606267322 15.085336352052275 C62.6343555002616 15.325131004704055, 62.37031493784998 15.564925657355834, 61.90185880146357 15.990365125751811 M62.89839606267322 15.085336352052275 C62.66940837609231 15.293296910322871, 62.44042068951141 15.501257468593467, 61.90185880146357 15.990365125751811 M61.90185880146357 15.990365125751811 C61.54009308017013 16.278863661493176, 61.17832735887669 16.56736219723454, 60.84938364031554 16.829686059227086 M61.90185880146357 15.990365125751811 C61.53275079293506 16.284718940176674, 61.16364278440656 16.579072754601537, 60.84938364031554 16.829686059227086 M60.84938364031554 16.829686059227086 C60.49725235284282 17.075317601850298, 60.14512106537011 17.32094914447351, 59.74529542542153 17.599850202728646 M60.84938364031554 16.829686059227086 C60.47051918484202 17.093965502587473, 60.09165472936849 17.358244945947856, 59.74529542542153 17.599850202728646 M59.74529542542153 17.599850202728646 C59.44557928182814 17.78153989030253, 59.14586313823474 17.963229577876408, 58.59413109208269 18.297692786591178 M59.74529542542153 17.599850202728646 C59.289107759305665 17.87639384678438, 58.83292009318979 18.15293749084012, 58.59413109208269 18.297692786591178 M58.59413109208269 18.297692786591178 C58.16116395886503 18.523571462662147, 57.72819682564737 18.749450138733117, 57.40062102146872 18.9203462259508 M58.59413109208269 18.297692786591178 C58.16840035945866 18.519796237107588, 57.742669626834626 18.741899687624, 57.40062102146872 18.9203462259508 M57.40062102146872 18.9203462259508 C57.130451095024284 19.039942438081635, 56.86028116857985 19.15953865021247, 56.16966960246687 19.465251904266456 M57.40062102146872 18.9203462259508 C57.1309810064005 19.039707862034646, 56.861340991332284 19.15906949811849, 56.16966960246687 19.465251904266456 M56.16966960246687 19.465251904266456 C55.85938548226947 19.579439328734065, 55.54910136207207 19.69362675320167, 54.90633507849605 19.930170687224038 M56.16966960246687 19.465251904266456 C55.77983594157199 19.60871429505863, 55.390002280677116 19.752176685850802, 54.90633507849605 19.930170687224038 M54.90633507849605 19.930170687224038 C54.446310937765176 20.066703437476974, 53.986286797034296 20.203236187729907, 53.615808762099675 20.313192123819615 M54.90633507849605 19.930170687224038 C54.61563413841082 20.016449200320963, 54.324933198325596 20.102727713417885, 53.615808762099675 20.313192123819615 M53.615808762099675 20.313192123819615 C53.27715636687153 20.390487323117032, 52.938503971643385 20.46778252241445, 52.303393702728826 20.61274229681237 M53.615808762099675 20.313192123819615 C53.11997613480365 20.426362685389655, 52.62414350750762 20.539533246959696, 52.303393702728826 20.61274229681237 M52.303393702728826 20.61274229681237 C51.98171500413896 20.664748814144815, 51.6600363055491 20.71675533147726, 50.974482895374635 20.827590290288168 M52.303393702728826 20.61274229681237 C52.01533886589265 20.65931276893342, 51.72728402905648 20.70588324105447, 50.974482895374635 20.827590290288168 M50.974482895374635 20.827590290288168 C50.47573024486108 20.87570435864539, 49.976977594347524 20.92381842700261, 49.63453711959497 20.956853247757063 M50.974482895374635 20.827590290288168 C50.4629100712289 20.87694110537717, 49.95133724708317 20.926291920466173, 49.63453711959497 20.956853247757063 M49.63453711959497 20.956853247757063 C49.288071609855635 20.9679637223002, 48.9416061001163 20.979074196843335, 48.28906250000001 21 M49.63453711959497 20.956853247757063 C49.13409833841021 20.972901345424663, 48.633659557225464 20.988949443092263, 48.28906250000001 21 M48.28906250000001 21 C48.28906250000001 21, 48.2890625 21, 48.2890625 21 M48.28906250000001 21 C48.28906250000001 21, 48.2890625 21, 48.2890625 21 M48.2890625 21 C24.718885686278252 21, 1.1487088725565044 21, -48.28906249999999 21 M48.2890625 21 C13.718582023358245 21, -20.85189845328351 21, -48.28906249999999 21 M-48.28906249999999 21 C-48.66909571649024 20.98781307443694, -49.04912893298049 20.97562614887388, -49.63453711959496 20.956853247757063 M-48.28906249999999 21 C-48.7715208098097 20.984528501052534, -49.25397911961941 20.969057002105068, -49.63453711959496 20.956853247757063 M-49.63453711959496 20.956853247757063 C-49.95540638359286 20.925899375760935, -50.27627564759076 20.89494550376481, -50.97448289537463 20.827590290288168 M-49.63453711959496 20.956853247757063 C-49.9062141414295 20.930644892200107, -50.177891163264036 20.904436536643153, -50.97448289537463 20.827590290288168 M-50.97448289537463 20.827590290288168 C-51.44256035918885 20.75191515593363, -51.91063782300308 20.67624002157909, -52.30339370272882 20.61274229681237 M-50.97448289537463 20.827590290288168 C-51.317773784432475 20.7720896816059, -51.66106467349032 20.716589072923632, -52.30339370272882 20.61274229681237 M-52.30339370272882 20.61274229681237 C-52.79064165613936 20.50153113103646, -53.277889609549895 20.39031996526055, -53.61580876209965 20.31319212381962 M-52.30339370272882 20.61274229681237 C-52.574445796124515 20.550876425275014, -52.8454978895202 20.489010553737657, -53.61580876209965 20.31319212381962 M-53.61580876209965 20.31319212381962 C-54.01017179131722 20.196147246801626, -54.4045348205348 20.07910236978363, -54.90633507849602 19.930170687224045 M-53.61580876209965 20.31319212381962 C-53.96099099804018 20.210743848091, -54.30617323398072 20.10829557236238, -54.90633507849602 19.930170687224045 M-54.90633507849602 19.930170687224045 C-55.39497141799423 19.750347997383898, -55.88360775749244 19.57052530754375, -56.16966960246686 19.465251904266456 M-54.90633507849602 19.930170687224045 C-55.23704467184364 19.808466499826153, -55.56775426519127 19.686762312428257, -56.16966960246686 19.465251904266456 M-56.16966960246686 19.465251904266456 C-56.50272598990667 19.317817721313556, -56.83578237734648 19.170383538360657, -57.400621021468716 18.920346225950805 M-56.16966960246686 19.465251904266456 C-56.56179912934919 19.291667794824775, -56.95392865623151 19.118083685383098, -57.400621021468716 18.920346225950805 M-57.400621021468716 18.920346225950805 C-57.76561377481128 18.72992974032101, -58.130606528153834 18.53951325469121, -58.59413109208269 18.29769278659118 M-57.400621021468716 18.920346225950805 C-57.69477488286037 18.76688634487732, -57.98892874425202 18.613426463803833, -58.59413109208269 18.29769278659118 M-58.59413109208269 18.29769278659118 C-58.848938128977935 18.143227263412925, -59.10374516587318 17.98876174023467, -59.74529542542151 17.59985020272866 M-58.59413109208269 18.29769278659118 C-58.84459718954247 18.145858766408896, -59.09506328700225 17.994024746226607, -59.74529542542151 17.59985020272866 M-59.74529542542151 17.59985020272866 C-59.992821681466125 17.42718660175086, -60.24034793751075 17.25452300077306, -60.84938364031554 16.82968605922709 M-59.74529542542151 17.59985020272866 C-59.98183493842223 17.434850478089842, -60.218374451422946 17.269850753451028, -60.84938364031554 16.82968605922709 M-60.84938364031554 16.82968605922709 C-61.07810871990872 16.647283894881514, -61.30683379950191 16.46488173053594, -61.901858801463554 15.990365125751827 M-60.84938364031554 16.82968605922709 C-61.148763952702225 16.590938226943404, -61.448144265088914 16.352190394659722, -61.901858801463554 15.990365125751827 M-61.901858801463554 15.990365125751827 C-62.20038348856527 15.719252903456441, -62.49890817566699 15.448140681161055, -62.89839606267321 15.08533635205229 M-61.901858801463554 15.990365125751827 C-62.274639790619936 15.651815294644486, -62.64742077977632 15.313265463537144, -62.89839606267321 15.08533635205229 M-62.89839606267321 15.08533635205229 C-63.1769002568879 14.797757905906034, -63.45540445110259 14.510179459759778, -63.83490043858163 14.118318695487652 M-62.89839606267321 15.08533635205229 C-63.21071612882153 14.762840241799834, -63.52303619496986 14.44034413154738, -63.83490043858163 14.118318695487652 M-63.83490043858163 14.118318695487652 C-64.02038456932928 13.900438481165436, -64.20586870007692 13.682558266843218, -64.70752363182862 13.093285839033408 M-63.83490043858163 14.118318695487652 C-64.02813222040191 13.891337649361672, -64.2213640022222 13.664356603235692, -64.70752363182862 13.093285839033408 M-64.70752363182862 13.093285839033408 C-64.96545438484739 12.747682127963264, -65.22338513786615 12.40207841689312, -65.51267984653607 12.01444986256557 M-64.70752363182862 13.093285839033408 C-64.9940878345313 12.709315913947743, -65.28065203723399 12.325345988862077, -65.51267984653607 12.01444986256557 M-65.51267984653607 12.01444986256557 C-65.78504313348292 11.596026714032128, -66.05740642042976 11.177603565498686, -66.24706052311225 10.886243934521037 M-65.51267984653607 12.01444986256557 C-65.66611872597645 11.7787265396369, -65.81955760541682 11.543003216708229, -66.24706052311225 10.886243934521037 M-66.24706052311225 10.886243934521037 C-66.39426784010709 10.624862436839463, -66.54147515710194 10.36348093915789, -66.907647933833 9.713304095057543 M-66.24706052311225 10.886243934521037 C-66.38834327254325 10.635382106476584, -66.52962602197425 10.384520278432129, -66.907647933833 9.713304095057543 M-66.907647933833 9.713304095057543 C-67.03588425218717 9.447018636177456, -67.16412057054134 9.180733177297368, -67.49172758333206 8.500450205570278 M-66.907647933833 9.713304095057543 C-67.1352767102054 9.24062807044468, -67.3629054865778 8.767952045831818, -67.49172758333206 8.500450205570278 M-67.49172758333206 8.500450205570278 C-67.62644951078006 8.167684440102427, -67.76117143822808 7.834918674634574, -67.99689936304496 7.252666142847472 M-67.49172758333206 8.500450205570278 C-67.67940090616447 8.036893469757349, -67.8670742289969 7.573336733944419, -67.99689936304496 7.252666142847472 M-67.99689936304496 7.252666142847472 C-68.13661826951602 6.831855057741235, -68.2763371759871 6.411043972634999, -68.42108741376987 5.975079319251681 M-67.99689936304496 7.252666142847472 C-68.09658189651657 6.952438234285852, -68.19626442998818 6.652210325724232, -68.42108741376987 5.975079319251681 M-68.42108741376987 5.975079319251681 C-68.55530011488618 5.463268121742578, -68.68951281600249 4.951456924233474, -68.76254865581829 4.672939613082607 M-68.42108741376987 5.975079319251681 C-68.51415323062311 5.6201790246100884, -68.60721904747636 5.265278729968497, -68.76254865581829 4.672939613082607 M-68.76254865581829 4.672939613082607 C-68.830613621758 4.323440398517862, -68.8986785876977 3.9739411839531162, -69.01987995170344 3.351597795700974 M-68.76254865581829 4.672939613082607 C-68.85161965602279 4.215578852195081, -68.94069065622728 3.7582180913075547, -69.01987995170344 3.351597795700974 M-69.01987995170344 3.351597795700974 C-69.08865663010832 2.818179459484109, -69.15743330851319 2.284761123267244, -69.19202387193316 2.016483544061333 M-69.01987995170344 3.351597795700974 C-69.07851817222479 2.8968113367637613, -69.13715639274615 2.442024877826549, -69.19202387193316 2.016483544061333 M-69.19202387193316 2.016483544061333 C-69.22403026841896 1.517958083696893, -69.25603666490474 1.0194326233324529, -69.27827304021444 0.6730831290047611 M-69.19202387193316 2.016483544061333 C-69.2197542476517 1.5845605586888594, -69.24748462337021 1.1526375733163856, -69.27827304021444 0.6730831290047611 M-69.27827304021444 0.6730831290047611 C-69.27827304021444 0.33045188608361087, -69.27827304021444 -0.012179356837539346, -69.27827304021444 -0.6730831290047509 M-69.27827304021444 0.6730831290047611 C-69.27827304021444 0.2195860450807014, -69.27827304021444 -0.2339110388433583, -69.27827304021444 -0.6730831290047509 M-69.27827304021444 -0.6730831290047509 C-69.24856109987294 -1.1358705828700921, -69.21884915953146 -1.5986580367354333, -69.19202387193316 -2.016483544061304 M-69.27827304021444 -0.6730831290047509 C-69.25100002617081 -1.0978823371149846, -69.22372701212718 -1.5226815452252183, -69.19202387193316 -2.016483544061304 M-69.19202387193316 -2.016483544061304 C-69.15187442980941 -2.327874688768993, -69.11172498768566 -2.6392658334766814, -69.01987995170346 -3.3515977957009637 M-69.19202387193316 -2.016483544061304 C-69.14838652490691 -2.3549261904280847, -69.10474917788066 -2.693368836794866, -69.01987995170346 -3.3515977957009637 M-69.01987995170346 -3.3515977957009637 C-68.96609855507894 -3.6277539006656485, -68.91231715845443 -3.903910005630333, -68.76254865581829 -4.6729396130825975 M-69.01987995170346 -3.3515977957009637 C-68.94675091233874 -3.7270999570108194, -68.87362187297403 -4.102602118320675, -68.76254865581829 -4.6729396130825975 M-68.76254865581829 -4.6729396130825975 C-68.64335959968753 -5.127459140972886, -68.52417054355676 -5.581978668863174, -68.42108741376987 -5.975079319251671 M-68.76254865581829 -4.6729396130825975 C-68.66351253271428 -5.050607273005453, -68.56447640961026 -5.428274932928309, -68.42108741376987 -5.975079319251671 M-68.42108741376987 -5.975079319251671 C-68.26633700009977 -6.441162909095974, -68.11158658642967 -6.907246498940276, -67.99689936304497 -7.2526661428474455 M-68.42108741376987 -5.975079319251671 C-68.31709611550572 -6.288284540859985, -68.21310481724159 -6.601489762468298, -67.99689936304497 -7.2526661428474455 M-67.99689936304497 -7.2526661428474455 C-67.87001964218932 -7.566061506413449, -67.74313992133365 -7.879456869979453, -67.49172758333206 -8.500450205570267 M-67.99689936304497 -7.2526661428474455 C-67.83984344250716 -7.640597303045498, -67.68278752196935 -8.02852846324355, -67.49172758333206 -8.500450205570267 M-67.49172758333206 -8.500450205570267 C-67.26902795711575 -8.96289074441711, -67.04632833089943 -9.425331283263954, -66.907647933833 -9.713304095057534 M-67.49172758333206 -8.500450205570267 C-67.27691649154022 -8.94651003389709, -67.06210539974838 -9.392569862223912, -66.907647933833 -9.713304095057534 M-66.907647933833 -9.713304095057534 C-66.68249147873479 -10.113092180647802, -66.45733502363656 -10.51288026623807, -66.24706052311227 -10.88624393452103 M-66.907647933833 -9.713304095057534 C-66.69708496569051 -10.08717996680711, -66.48652199754802 -10.461055838556684, -66.24706052311227 -10.88624393452103 M-66.24706052311227 -10.88624393452103 C-65.9660473334462 -11.3179556564553, -65.68503414378013 -11.74966737838957, -65.51267984653607 -12.014449862565563 M-66.24706052311227 -10.88624393452103 C-66.09136005768595 -11.125441660844988, -65.93565959225961 -11.364639387168946, -65.51267984653607 -12.014449862565563 M-65.51267984653607 -12.014449862565563 C-65.24090974000858 -12.378597046546371, -64.96913963348108 -12.742744230527178, -64.70752363182864 -13.0932858390334 M-65.51267984653607 -12.014449862565563 C-65.19097607899553 -12.445503603253755, -64.86927231145498 -12.876557343941947, -64.70752363182864 -13.0932858390334 M-64.70752363182864 -13.0932858390334 C-64.44021568299608 -13.407280965985294, -64.17290773416353 -13.721276092937188, -63.834900438581634 -14.118318695487645 M-64.70752363182864 -13.0932858390334 C-64.48046644939905 -13.360000125434874, -64.25340926696947 -13.626714411836348, -63.834900438581634 -14.118318695487645 M-63.834900438581634 -14.118318695487645 C-63.499166483290544 -14.464991568596052, -63.163432527999454 -14.81166444170446, -62.89839606267323 -15.085336352052268 M-63.834900438581634 -14.118318695487645 C-63.510941197005636 -14.452833209963245, -63.18698195542964 -14.787347724438845, -62.89839606267323 -15.085336352052268 M-62.89839606267323 -15.085336352052268 C-62.68008643497183 -15.283599379774456, -62.461776807270425 -15.481862407496646, -61.901858801463575 -15.99036512575181 M-62.89839606267323 -15.085336352052268 C-62.680806075923115 -15.282945820903155, -62.463216089172995 -15.48055528975404, -61.901858801463575 -15.99036512575181 M-61.901858801463575 -15.99036512575181 C-61.613619446769974 -16.22022834074859, -61.32538009207637 -16.450091555745374, -60.849383640315544 -16.829686059227086 M-61.901858801463575 -15.99036512575181 C-61.58941574567452 -16.239530148284683, -61.27697268988546 -16.488695170817557, -60.849383640315544 -16.829686059227086 M-60.849383640315544 -16.829686059227086 C-60.60772670698231 -16.99825547476031, -60.36606977364908 -17.16682489029353, -59.74529542542153 -17.599850202728646 M-60.849383640315544 -16.829686059227086 C-60.525113478194584 -17.055882886893592, -60.20084331607362 -17.282079714560098, -59.74529542542153 -17.599850202728646 M-59.74529542542153 -17.599850202728646 C-59.46219174643106 -17.77146931663456, -59.17908806744059 -17.943088430540467, -58.5941310920827 -18.297692786591174 M-59.74529542542153 -17.599850202728646 C-59.42104358180319 -17.796413575845428, -59.09679173818485 -17.99297694896221, -58.5941310920827 -18.297692786591174 M-58.5941310920827 -18.297692786591174 C-58.35182108618993 -18.424105761458467, -58.10951108029715 -18.55051873632576, -57.40062102146872 -18.9203462259508 M-58.5941310920827 -18.297692786591174 C-58.28359863147084 -18.45969737238685, -57.97306617085898 -18.621701958182523, -57.40062102146872 -18.9203462259508 M-57.40062102146872 -18.9203462259508 C-57.053229656225874 -19.0741260783451, -56.705838290983024 -19.227905930739396, -56.16966960246687 -19.465251904266452 M-57.40062102146872 -18.9203462259508 C-56.95583154618898 -19.11724133244615, -56.51104207090925 -19.314136438941496, -56.16966960246687 -19.465251904266452 M-56.16966960246687 -19.465251904266452 C-55.89679128989347 -19.565673645752934, -55.62391297732007 -19.666095387239416, -54.90633507849605 -19.930170687224038 M-56.16966960246687 -19.465251904266452 C-55.71138604674453 -19.633904489099024, -55.25310249102218 -19.802557073931595, -54.90633507849605 -19.930170687224038 M-54.90633507849605 -19.930170687224038 C-54.49440095501932 -20.052430572785592, -54.082466831542604 -20.174690458347143, -53.615808762099675 -20.31319212381961 M-54.90633507849605 -19.930170687224038 C-54.53252438229369 -20.041115739684514, -54.15871368609132 -20.15206079214499, -53.615808762099675 -20.31319212381961 M-53.615808762099675 -20.31319212381961 C-53.10397507438371 -20.430014823013828, -52.59214138666775 -20.54683752220804, -52.303393702728826 -20.61274229681237 M-53.615808762099675 -20.31319212381961 C-53.31873046696849 -20.380998306066257, -53.0216521718373 -20.448804488312902, -52.303393702728826 -20.61274229681237 M-52.303393702728826 -20.61274229681237 C-51.88940691398434 -20.679672470301085, -51.47542012523984 -20.7466026437898, -50.97448289537464 -20.827590290288168 M-52.303393702728826 -20.61274229681237 C-51.7953660954306 -20.694876260547414, -51.28733848813237 -20.777010224282456, -50.97448289537464 -20.827590290288168 M-50.97448289537464 -20.827590290288168 C-50.67076044605179 -20.856890029694657, -50.36703799672893 -20.886189769101144, -49.634537119594974 -20.956853247757063 M-50.97448289537464 -20.827590290288168 C-50.65713921806947 -20.858204053176188, -50.3397955407643 -20.888817816064204, -49.634537119594974 -20.956853247757063 M-49.634537119594974 -20.956853247757063 C-49.11645447010591 -20.973467149939477, -48.59837182061684 -20.990081052121887, -48.28906250000001 -21 M-49.634537119594974 -20.956853247757063 C-49.29450999213162 -20.96775725591216, -48.95448286466828 -20.978661264067256, -48.28906250000001 -21 M-48.28906250000001 -21 C-48.28906250000001 -21, -48.2890625 -21, -48.2890625 -21 M-48.28906250000001 -21 C-48.28906250000001 -21, -48.2890625 -21, -48.2890625 -21" stroke="#ccc" stroke-width="1.3" fill="none" stroke-dasharray="0 0" style=""/></g><g class="label" style="" transform="translate(-56.5390625, -13.5)"><rect/><foreignObject width="113.078125" height="27"><div xmlns="http://www.w3.org/1999/xhtml" style="display: table-cell; white-space: nowrap; line-height: 1.5; max-width: 200px; text-align: center;"><span class="nodeLabel"><p>User browser</p></span></div></foreignObject></g></g><g class="node default" id="open-webui-architecture-dark-flowchart-cognito-1" data-look="classic" transform="translate(1277.8984375, 432.5)"><rect class="basic label-container" style="" x="-130" y="-55.5" width="260" height="111"/><g class="label" style="" transform="translate(-100, -40.5)"><rect/><foreignObject width="200" height="81"><div xmlns="http://www.w3.org/1999/xhtml" style="display: table; white-space: break-spaces; line-height: 1.5; max-width: 200px; text-align: center; width: 200px;"><span class="nodeLabel"><p>Amazon Cognito<br />managed login and user pool</p></span></div></foreignObject></g></g><g class="node default" id="open-webui-architecture-dark-flowchart-cloudfront-2" data-look="classic" transform="translate(171, 186.5)"><rect class="basic label-container" style="" x="-130" y="-55.5" width="260" height="111"/><g class="label" style="" transform="translate(-100, -40.5)"><rect/><foreignObject width="200" height="81"><div xmlns="http://www.w3.org/1999/xhtml" style="display: table; white-space: break-spaces; line-height: 1.5; max-width: 200px; text-align: center; width: 200px;"><span class="nodeLabel"><p>Amazon CloudFront<br />viewer HTTPS · caching disabled</p></span></div></foreignObject></g></g><g class="node default" id="open-webui-architecture-dark-flowchart-alb-7" data-look="classic" transform="translate(171, 432.5)"><rect class="basic label-container" style="" x="-130" y="-42" width="260" height="84"/><g class="label" style="" transform="translate(-100, -27)"><rect/><foreignObject width="200" height="54"><div xmlns="http://www.w3.org/1999/xhtml" style="display: table; white-space: break-spaces; line-height: 1.5; max-width: 200px; text-align: center; width: 200px;"><span class="nodeLabel"><p>Internal Application Load Balancer</p></span></div></foreignObject></g></g><g class="node default" id="open-webui-architecture-dark-flowchart-owui-8" data-look="classic" transform="translate(423.82421875, 732.5)"><rect class="basic label-container" style="" x="-130" y="-109.5" width="260" height="219"/><g class="label" style="" transform="translate(-100, -94.5)"><rect/><foreignObject width="200" height="189"><div xmlns="http://www.w3.org/1999/xhtml" style="display: table; white-space: break-spaces; line-height: 1.5; max-width: 200px; text-align: center; width: 200px;"><span class="nodeLabel"><p>Amazon ECS on AWS Fargate<br /><b>unmodified official Open WebUI image</b><br />runtime-seeded Chat · Responses · Claude lanes</p></span></div></foreignObject></g></g><g class="node default" id="open-webui-architecture-dark-flowchart-data-9" data-look="classic" transform="translate(148.5, 1073)"><path d="M0,15.808823529411764 a107.5,15.808823529411764 0,0,0 215,0 a107.5,15.808823529411764 0,0,0 -215,0 l0,111.80882352941177 a107.5,15.808823529411764 0,0,0 215,0 l0,-111.80882352941177" class="basic label-container outer-path" style="" transform="translate(-107.5, -71.71323529411765)"/><g class="label" style="" transform="translate(-100, -30.5)"><rect/><foreignObject width="200" height="81"><div xmlns="http://www.w3.org/1999/xhtml" style="display: table; white-space: break-spaces; line-height: 1.5; max-width: 200px; text-align: center; width: 200px;"><span class="nodeLabel"><p>Aurora PostgreSQL + pgvector<br />ElastiCache Redis</p></span></div></foreignObject></g></g><g class="node default" id="open-webui-architecture-dark-flowchart-services-18" data-look="classic" transform="translate(971.8984375, 432.5)"><rect class="basic label-container" style="" x="-130" y="-82.5" width="260" height="165"/><g class="label" style="" transform="translate(-100, -67.5)"><rect/><foreignObject width="200" height="135"><div xmlns="http://www.w3.org/1999/xhtml" style="display: table; white-space: break-spaces; line-height: 1.5; max-width: 200px; text-align: center; width: 200px;"><span class="nodeLabel"><p>Amazon S3 uploads · AWS Secrets Manager<br /><i>regional managed services reached through VPC endpoints</i></p></span></div></foreignObject></g></g><g class="node default" id="open-webui-architecture-dark-flowchart-gateway-21" data-look="classic" transform="translate(1043.3984375, 1467.5)"><rect class="basic label-container" style="" x="-130" y="-109.5" width="260" height="219"/><g class="label" style="" transform="translate(-100, -94.5)"><rect/><foreignObject width="200" height="189"><div xmlns="http://www.w3.org/1999/xhtml" style="display: table; white-space: break-spaces; line-height: 1.5; max-width: 200px; text-align: center; width: 200px;"><span class="nodeLabel"><p>Amazon Bedrock AgentCore gateway<br />CUSTOM_JWT user authorization<br />capability-filtered REQUEST interceptor<br />bedrock-mantle target</p></span></div></foreignObject></g></g><g class="node default" id="open-webui-architecture-dark-flowchart-bedrock-22" data-look="classic" transform="translate(1043.3984375, 1740.5)"><rect class="basic label-container" style="" x="-130" y="-55.5" width="260" height="111"/><g class="label" style="" transform="translate(-100, -40.5)"><rect/><foreignObject width="200" height="81"><div xmlns="http://www.w3.org/1999/xhtml" style="display: table; white-space: break-spaces; line-height: 1.5; max-width: 200px; text-align: center; width: 200px;"><span class="nodeLabel"><p>Amazon Bedrock<br />OpenAI-compatible and Messages APIs</p></span></div></foreignObject></g></g><g class="node default" id="open-webui-architecture-dark-flowchart-governance-29" data-look="classic" transform="translate(1043.3984375, 1073)"><rect class="basic label-container" style="stroke-dasharray:7 5 !important" x="-130" y="-123" width="260" height="246"/><g class="label" style="" transform="translate(-100, -108)"><rect/><foreignObject width="200" height="216"><div xmlns="http://www.w3.org/1999/xhtml" style="display: table; white-space: break-spaces; line-height: 1.5; max-width: 200px; text-align: center; width: 200px;"><span class="nodeLabel"><p>Optional consumption governance — off by default<br />admission/reservation · usage settlement<br />DynamoDB ledger/pricing · Cloudscape console</p></span></div></foreignObject></g></g></g></g></g><defs><filter id="open-webui-architecture-dark-drop-shadow" height="130%" width="130%"><feDropShadow dx="4" dy="4" stdDeviation="0" flood-opacity="0.06" flood-color="#FFFFFF"/></filter></defs><defs><filter id="open-webui-architecture-dark-drop-shadow-small" height="150%" width="150%"><feDropShadow dx="2" dy="2" stdDeviation="0" flood-opacity="0.06" flood-color="#FFFFFF"/></filter></defs><linearGradient id="open-webui-architecture-dark-gradient" gradientUnits="objectBoundingBox" x1="0%" y1="0%" x2="100%" y2="0%"><stop offset="0%" stop-color="#cccccc" stop-opacity="1"/><stop offset="100%" stop-color="hsl(180, 0%, 18.3529411765%)" stop-opacity="1"/></linearGradient></svg>